<?xml version="1.0" encoding="UTF-8"?>
<svg id="svg78" width="1114.9" height="964.98" clip-rule="evenodd" fill-rule="evenodd" stroke-linejoin="round" stroke-miterlimit="1.4142" version="1.1" viewBox="0 0 1114.9 964.98" xml:space="preserve" xmlns="http://www.w3.org/2000/svg" xmlns:cc="http://creativecommons.org/ns#" xmlns:dc="http://purl.org/dc/elements/1.1/" xmlns:rdf="http://www.w3.org/1999/02/22-rdf-syntax-ns#" xmlns:serif="http://www.serif.com/" xmlns:xlink="http://www.w3.org/1999/xlink">
<metadata id="metadata82"><rdf:RDF><cc:Work rdf:about=""><dc:format>image/svg+xml</dc:format><dc:type rdf:resource="http://purl.org/dc/dcmitype/StillImage"/><dc:title/></cc:Work></rdf:RDF></metadata>
    <g id="Layer-1" transform="translate(-42.415 189.6)" serif:id="Layer 1">
        <g id="g4" transform="translate(597.34 637.02)">
            <path id="path2" d="m0-279.56c-121.24 0-231.39 14.576-312.94 38.329v202.9c81.549 23.754 191.7 38.329 312.94 38.329 138.76 0 262.99-19.092 346.43-49.186v-181.18c-83.444-30.095-207.67-49.189-346.43-49.189" fill="#a52b00" fill-rule="nonzero"/>
        </g>
        <g id="g8" transform="translate(1068.8 575.64)">
            <path id="path6" d="m0-53.32-14.211-29.441c0.073-1.118 0.131-2.237 0.131-3.36 0-33.375-34.706-64.135-93.097-88.762v177.53c27.245-11.492 49.348-24.317 65.156-38.125-4.652 18.707-20.564 56.553-33.25 83.168-20.85 38.066-28.4 71.203-27.432 72.844 0.617 1.033 7.73-9.94 18.219-27.721 24.41-34.781 70.664-101.18 79.909-118.1 10.472-19.174 4.575-28.033 4.575-28.033" fill="#a52b00" fill-rule="nonzero"/>
        </g>
        <g id="g12" transform="translate(149.06 591.42)">
            <path id="path10" d="m0-99.954c0 6.428 1.293 12.76 3.788 18.969l-8.511 15.15s-6.818 8.846 5.188 27.508c10.59 16.455 63.635 80.867 91.632 114.6 12.026 17.293 20.179 27.945 20.893 26.916 1.124-1.633-7.476-34.1-31.359-71.141-11.144-19.895-24.454-46.252-32.442-65.721 22.303 14.116 51.483 26.92 86.152 37.94v-208.44c-83.544 26.548-135.34 63.433-135.34 104.22" fill="#a52b00" fill-rule="nonzero"/>
        </g>
        <g id="g16" transform="matrix(-65.81 -752.21 -752.21 65.81 621.71 796.31)">
            <path id="path14" d="m0.991-0.034-0.058 0.042v0.018l0.057 0.043c6e-3 4e-3 9e-3 0.011 8e-3 0.018s-6e-3 0.013-0.012 0.016l-0.066 0.03c-1e-3 6e-3 -2e-3 0.012-4e-3 0.017l0.048 0.053c4e-3 5e-3 6e-3 0.013 4e-3 0.019-3e-3 7e-3 -8e-3 0.012-0.015 0.014l-0.071 0.018c-2e-3 5e-3 -5e-3 0.01-7e-3 0.016l0.035 0.06c4e-3 6e-3 4e-3 0.014 0 0.02-3e-3 6e-3 -0.01 0.01-0.017 0.011l-0.073 4e-3c-3e-3 4e-3 -7e-3 9e-3 -0.01 0.014l0.022 0.066c3e-3 7e-3 1e-3 0.014-4e-3 0.02-4e-3 5e-3 -0.012 8e-3 -0.019 7e-3l-0.072-0.01c-4e-3 4e-3 -8e-3 8e-3 -0.013 0.012l9e-3 0.07c1e-3 7e-3 -2e-3 0.014-8e-3 0.018s-0.014 6e-3 -0.021 3e-3l-0.068-0.023c-5e-3 4e-3 -0.01 7e-3 -0.015 0.01l-6e-3 0.069c0 8e-3 -5e-3 0.014-0.011 0.017-7e-3 3e-3 -0.015 3e-3 -0.021 0l-0.062-0.036c-1e-3 1e-3 -2e-3 1e-3 -3e-3 1e-3l-0.112 0.126s-0.012 0.018-0.047-4e-3c-0.03-0.02-0.153-0.126-0.218-0.182-0.032-0.023-0.052-0.039-0.051-0.041 3e-3 -3e-3 0.059 7e-3 0.127 0.052 0.061 0.034 0.154 0.077 0.163 0.065 0 0 0.016-0.015 0.026-0.044 1e-3 1e-3 1e-3 1e-3 0 0 0 0-0.315-0.551-0.101-1.106 6e-3 -0.062-0.03-0.096-0.03-0.096-9e-3 -0.012-0.097 0.029-0.155 0.061-0.065 0.043-0.118 0.053-0.12 0.05-1e-3 -2e-3 0.018-0.017 0.049-0.039 0.061-0.053 0.178-0.152 0.207-0.171 0.033-0.022 0.045-4e-3 0.045-4e-3l0.101 0.115c4e-3 1e-3 8e-3 2e-3 0.013 2e-3l0.055-0.045c5e-3 -5e-3 0.013-6e-3 0.02-4e-3s0.012 7e-3 0.014 0.014l0.018 0.068c5e-3 2e-3 0.011 4e-3 0.016 6e-3l0.064-0.034c6e-3 -4e-3 0.014-4e-3 0.021 0 6e-3 3e-3 0.01 9e-3 0.01 0.016l4e-3 0.07c5e-3 3e-3 0.01 7e-3 0.015 0.01l0.069-0.022c7e-3 -2e-3 0.015-1e-3 0.02 3e-3 6e-3 5e-3 9e-3 0.012 8e-3 0.019l-0.011 0.069c4e-3 4e-3 8e-3 8e-3 0.013 0.012l0.072-8e-3c7e-3 -1e-3 0.014 2e-3 0.019 7e-3 5e-3 6e-3 6e-3 0.013 3e-3 0.02l-0.024 0.065c3e-3 5e-3 7e-3 0.01 0.01 0.015l0.072 5e-3c8e-3 0 0.014 5e-3 0.017 0.011 4e-3 6e-3 4e-3 0.014 0 0.02l-0.037 0.06c2e-3 5e-3 4e-3 0.01 6e-3 0.016l0.07 0.018c7e-3 2e-3 0.013 7e-3 0.015 0.014s0 0.014-5e-3 0.02l-0.049 0.052c1e-3 5e-3 3e-3 0.011 4e-3 0.017l0.064 0.031c7e-3 3e-3 0.011 9e-3 0.012 0.016s-3e-3 0.014-9e-3 0.018zm-0.585 0.609z" fill="url(#_Linear1)" fill-rule="nonzero"/>
        </g>
        <g id="g20" transform="translate(450.33 483.63)">
            <path id="path18" d="m0 167.33c-1.664-1.42-2.536-2.262-2.536-2.262l142.54-11.677c-116.27-153.39-209.42-31.198-219.34-17.536v31.475z" fill-rule="nonzero"/>
        </g>
        <g id="g24" transform="translate(747.12 477.33)">
            <path id="path22" d="m0 171.97c1.663-1.42 2.536-2.264 2.536-2.264l-136.98-10.023c116.33-159.69 203.87-32.852 213.78-19.19v31.477z" fill-rule="nonzero"/>
        </g>
        <g id="g28" transform="matrix(-1.53e-5 -267.21 -267.21 1.53e-5 809.46 764.23)">
            <path id="path26" d="m1-0.586s-0.232 0.058-0.476 0.421l-0.024 0.101s0.6 0.329-0.076 0.795c0 0 0.084-0.145-0.019-0.534 0 0-0.274 0.179-0.265 0.539 0 0-0.415-0.345 0.184-0.871 0 0 0.215-0.556 0.676-0.601z" fill="url(#_Linear2)" fill-rule="nonzero"/>
        </g>
        <g id="g32" transform="translate(677.39 509.61)">
            <path id="path30" d="m0-92.063s43.486-47.615 86.974 0c0 0 34.17 63.492 0 95.234 0 0-55.912 44.444-86.974 0 0 0-37.275-34.921 0-95.234" fill-rule="nonzero"/>
        </g>
        <g id="g36" transform="translate(727.74 435.21)">
            <path id="path34" d="m0 2e-3c0 18.541-10.93 33.572-24.408 33.572-13.477 0-24.406-15.031-24.406-33.572s10.929-33.574 24.406-33.574c13.478 0 24.408 15.033 24.408 33.574" fill="#fff" fill-rule="nonzero"/>
        </g>
        <g id="g40" transform="translate(483.3 502.98)">
            <path id="path38" d="m0-98.439s74.596-33.028 94.956 40.691c0 0 21.327 85.926-61.259 90.776 0 0-105.31-20.283-33.697-131.47" fill-rule="nonzero"/>
        </g>
        <g id="g44" transform="translate(520.77 436.43)">
            <path id="path42" d="m0 0c0 19.119-11.27 34.627-25.173 34.627-13.898 0-25.171-15.508-25.171-34.627 0-19.124 11.273-34.627 25.171-34.627 13.903 0 25.173 15.503 25.173 34.627" fill="#fff" fill-rule="nonzero"/>
        </g>
        <g id="g48" transform="matrix(-1.53e-5 -239.02 -239.02 1.53e-5 402.16 775.39)">
            <path id="path46" d="m0.367 0.129c-0.731-0.57-0.144-0.84-0.144-0.84 0.036 0.32 0.249 0.547 0.249 0.547 0.049-0.384 0.053-0.606 0.053-0.606 0.678 0.514 0.064 0.931 0.064 0.931 0.038 0.104 0.183 0.211 0.317 0.29l0.094 0.319c-0.624-0.367-0.633-0.641-0.633-0.641z" fill="url(#_Linear3)" fill-rule="nonzero"/>
        </g>
    </g>
    <defs id="defs76"><linearGradient id="_Linear1" x2="1" gradientTransform="matrix(1 0 0 -1 0 -.00065052)" gradientUnits="userSpaceOnUse"><stop id="stop51" stop-color="#f74c00" offset="0"/><stop id="stop53" stop-color="#f74c00" offset=".33"/><stop id="stop55" stop-color="#f49600" offset="1"/></linearGradient><linearGradient id="_Linear2" x2="1" gradientTransform="matrix(1 0 0 -1 0 1.2344e-6)" gradientUnits="userSpaceOnUse"><stop id="stop58" stop-color="#cc3a00" offset="0"/><stop id="stop60" stop-color="#cc3a00" offset=".15"/><stop id="stop62" stop-color="#f74c00" offset=".74"/><stop id="stop64" stop-color="#f74c00" offset="1"/></linearGradient><linearGradient id="_Linear3" x2="1" gradientTransform="scale(1,-1)" gradientUnits="userSpaceOnUse"><stop id="stop67" stop-color="#cc3a00" offset="0"/><stop id="stop69" stop-color="#cc3a00" offset=".15"/><stop id="stop71" stop-color="#f74c00" offset=".74"/><stop id="stop73" stop-color="#f74c00" offset="1"/></linearGradient><linearGradient id="linearGradient6517" x1="609.04" x2="7.6671" y1="-515" y2="-337.34" gradientTransform="matrix(.84091 0 0 .83307 54.015 573.07)" gradientUnits="userSpaceOnUse"><stop id="stop6511" stop-color="#ac5fb3" offset="0"/><stop id="stop6513" stop-color="#fcf8fb" offset="1"/></linearGradient><linearGradient id="linearGradient6541" x1="645.99" x2="15.254" y1="-207.12" y2="-71.186" gradientTransform="matrix(.84091 0 0 .83307 14.108 513.77)" gradientUnits="userSpaceOnUse"><stop id="stop6533" stop-color="#a0bcad" offset="0"/><stop id="stop6535" stop-color="#fcf8fb" offset="1"/></linearGradient></defs>
<path id="path5750" d="m141.21 342.14c-16.307-96.952 51.547-188.69 135.47-231.62 116.94-68.481 258.38-94.697 392.52-74.964 89.557 15.182 174.35 63.054 230.32 134.2 27.473 42.373 49.057 93.199 46.286 144.39" fill="none" stroke="#000" stroke-linejoin="round" stroke-miterlimit="4" stroke-width="58.285"/><path id="path5787" d="m184.9 327.86c74.771-31.816 156.46-43.81 237.45-41.224 131.01-1.802 262.19-6.1458 393.14-2.1398 67.346 5.8065 139.23 24.854 182.97 79.791 18.791 24.973 73.669 58.268 35.584 89.79-43.011 27.605-96.289 4.7827-142.96 0.58335-141.73-35.193-289.23-29.788-434.1-27.261-116.68 5.6691-232.42 24.233-346.71 46.887-55.603-4.0308-35.519-70.696-6.1917-94.882 21.011-24.627 49.659-42.479 80.82-51.543z" fill="none" stroke="#000" stroke-linejoin="miter" stroke-miterlimit="4" stroke-width="32.599"/><path id="path6261" d="m104.42 456.47c-35.345-27.416 19.051-72.9 41.922-91.716 51.61-30.119 111.2-44.882 169.67-55.962 108.05-8.4701 216.79-6.0909 325.14-8.2538 98.328 1.7131 203.13-13.268 294.08 32.933 37.833 22.353 65.216 58.266 93.489 90.979-4.4388 39.159-63.316 23.107-92.855 20.38-72.898-12.283-145.09-30.13-219.37-32.563-167.22-8.3181-335.75-4.04-500.85 25.475-37.269 4.0452-74.131 17.664-111.22 18.727z" fill="url(#linearGradient6541)"/><path id="path6509" d="m168.78 308.99c0-20.869 6.8167-45.866 19.26-70.627 11.041-21.971 23.582-39.068 41.957-57.2 23.582-23.27 49.447-40.137 99.125-64.643 76.787-37.879 161.9-57.166 252.27-57.166 82.957 0 140.68 13.805 199.71 47.766 36.092 20.763 79.17 58.193 95.796 83.237 10.558 15.904 23.48 42.48 29.446 60.561 5.0819 15.402 9.0896 33.987 7.6387 35.424-0.42496 0.42104-3.5986-0.22367-7.0524-1.4327-17.776-6.2224-50.368-12.816-81.106-16.407-30.754-3.5934-421.04-0.97661-476.04 3.1917-54.515 4.1319-107.9 15.906-156.07 34.419-8.6229 3.3144-17.762 6.7082-20.31 7.5418l-4.6321 1.5157z" fill="url(#linearGradient6517)"/></svg>
